<svg xmlns="http://www.w3.org/2000/svg" viewBox="0 0 550 550" fill="currentColor">
  <path d="M276.978 80.997C233.658 84.92 192.891 100.393 159 125.774c-10.065 7.538-27.793 24.878-35.527 34.75-4.533 5.787-6.759 9.689-7.983 14-0.934 3.287-3.211 8.226-5.059 10.976-6.917 10.291-15.565 38.312-18.99 61.536-1.348 9.142-1.58 15.717-1.142 32.464 0.863 32.972 4.302 49.926 15.771 77.739 7.717 18.716 10.22 23.052 15.972 27.675 3.023 2.429 4.099 4.115 4.591 7.195 0.502 3.139 1.614 4.832 5.058 7.707 2.427 2.026 5.846 5.934 7.596 8.684 5.148 8.089 11.617 14.422 21.213 20.764 9.151 6.048 30.733 17.318 42.508 22.197 3.571 1.479 8.101 3.508 10.067 4.507 1.966 1 6.121 2.346 9.233 2.992 3.111 0.646 5.917 1.594 6.234 2.107 0.317 0.513 1.648 0.933 2.958 0.933 1.31 0 2.675 0.474 3.033 1.053 0.357 0.579 1.172 0.855 1.809 0.614 0.637-0.241 2.992 0.608 5.233 1.887 4.042 2.307 4.312 2.323 33 2.043 33.355-0.326 38.171-0.967 63.941-8.51 20.015-5.859 29.787-9.677 36.968-14.445 2.878-1.911 8.333-5.041 12.124-6.957 10.498-5.307 28.56-21.208 39.797-35.036 27.69-34.077 38.476-72.193 31.635-111.8-8.421-48.751-39.631-90.625-80.819-108.433-21.891-9.464-52.985-12.791-82.92-8.871-33.116 4.337-55.76 14.33-75.564 33.349-11.615 11.155-18.673 20.566-24.079 32.106-7.045 15.038-8.171 20.683-8.079 40.5 0.072 15.45 0.325 17.821 2.779 26 4.74 15.799 10.401 26.202 18.778 34.507 7.819 7.752 22.494 19.52 29.36 23.543 9.867 5.783 46.43 12.122 55.001 9.536 1.652-0.498 6.663-1.153 11.136-1.456 14.216-0.961 25.815-7.097 34.127-18.053 2.535-3.343 6.101-7.766 7.925-9.83 1.823-2.064 3.315-4.444 3.315-5.29s0.928-3.356 2.062-5.579c1.638-3.211 1.934-5.103 1.438-9.21-0.39-3.231-0.038-7.912 0.938-12.484 2.065-9.673 1.974-12.453-0.575-17.475-7.812-15.392-16.049-20.915-35.98-24.123-9.198-1.481-21.914-0.824-27.383 1.413-1.1 0.45-2.788 1.07-3.75 1.378-0.962 0.308-1.75 1.425-1.75 2.482 0 1.247-0.933 2.157-2.651 2.589-1.458 0.365-3.595 1.862-4.75 3.326-2.884 3.656-5.776 10.322-5.166 11.91 0.276 0.721-0.566 2.011-1.871 2.866-2.136 1.4-2.337 2.144-2.006 7.411 0.267 4.236-0.03 6.187-1.073 7.052-1.039 0.862-1.169 1.705-0.466 3.019 0.537 1.002 0.718 2.493 0.403 3.314-0.314 0.82 0.169 2.623 1.075 4.005 2.229 3.401 0.639 6.239-4.257 7.599-8.706 2.418-14.595-0.101-22.084-9.446-2.98-3.719-6.94-7.376-9.281-8.57l-4.083-2.083 2.105-2.24c2.154-2.293 2.806-6.061 1.219-7.041-0.487-0.302-1.677-3.473-2.645-7.048-4.405-16.272 2.206-36.154 16.91-50.858 14.503-14.504 34.797-23.529 60.057-26.708 8.182-1.03 10.068-0.973 14.179 0.427 2.893 0.986 8.082 1.622 13.313 1.631 4.715 0.008 11.497 0.702 15.072 1.541 8.532 2.004 21.076 8.21 28.235 13.969 12.009 9.66 24.173 29.403 30.792 49.975 3.879 12.055 4.874 24.961 2.993 38.795-3.05 22.424-10.653 36.752-29.753 56.073-28.857 29.19-57.196 40.615-100.767 40.623-22.454 0.005-31.55-1.302-46.5-6.68-17.068-6.14-23.521-9.343-33.025-16.389-10.698-7.932-24.97-22.339-24.99-25.225-0.019-2.748-0.756-3.779-4.321-6.049-1.56-0.994-4.66-4.716-6.89-8.272-2.895-4.618-5.052-6.883-7.544-7.924-3.239-1.354-3.45-1.708-2.928-4.923 0.489-3.019-0.004-4.153-3.838-8.809-4.078-4.953-4.515-6.061-5.971-15.105-1.268-7.882-1.337-10.404-0.359-13.109 1.131-3.128 1.008-3.581-1.876-6.865-4.399-5.01-5.526-11.372-5.109-28.837l0.351-14.696 3.25-3.352c2.69-2.774 3.25-4.128 3.25-7.857 0-5.349 5.193-21.289 10.754-33.012 2.189-4.613 6.964-12.139 10.613-16.724 3.648-4.586 6.633-8.747 6.633-9.247 0-1.752 14.588-16.273 24.083-23.973 33.787-27.399 70.775-39.777 119.917-40.131 23.507-0.169 40.551 3.311 67.825 13.852 16.303 6.301 20.88 6.887 28.264 3.621 4.642-2.053 10.911-8.299 10.911-10.869 0-4.299-8.002-13.876-12.545-15.017-1.379-0.346-2.962-1.477-3.517-2.514-0.554-1.037-1.851-1.885-2.88-1.885-1.029 0-4.951-1.394-8.715-3.098-26.355-11.932-49.431-18.971-71.77-21.894-11.405-1.492-35.508-2.015-46.595-1.011Z"/>
</svg>
