<svg width="256" height="256" viewBox="0 0 256 256" fill="none" xmlns="http://www.w3.org/2000/svg">
  <rect width="256" height="256" rx="56" fill="#0B5C4B"/>
  <rect x="42" y="52" width="112" height="152" rx="20" fill="#0F7B63"/>
  <rect x="74" y="82" width="68" height="14" rx="7" fill="#D6FFF2"/>
  <rect x="74" y="110" width="48" height="14" rx="7" fill="#B4F5E1"/>
  <rect x="100" y="66" width="114" height="126" rx="22" fill="#10A37F"/>
  <path d="M130 95C130 82.8497 139.85 73 152 73H184.5C192.508 73 199 79.4919 199 87.5C199 95.5081 192.508 102 184.5 102H152C148.134 102 145 105.134 145 109C145 112.866 148.134 116 152 116H171.5C188.897 116 203 130.103 203 147.5C203 164.897 188.897 179 171.5 179H137C124.85 179 115 169.15 115 157V154H145V157C145 160.866 148.134 164 152 164H171.5C180.613 164 188 156.613 188 147.5C188 138.387 180.613 131 171.5 131H152C139.85 131 130 121.15 130 109V95Z" fill="white"/>
</svg>
