<svg xmlns="http://www.w3.org/2000/svg" viewBox="-13.714 -13.714 91.429 91.429" fill="currentColor"><path fill-rule="evenodd" d="M10.65,62.17C9.22,60.59 9.00,57.43 9.00,38.67C9.00,17.67 8.94,17.00 7.00,17.00C5.35,17.00 5.00,16.34 5.02,13.25C5.05,9.97 5.49,9.28 8.57,7.75C10.50,6.79 14.31,6.00 17.04,6.00C20.67,6.00 22.00,5.62 22.00,4.57C22.00,1.37 25.00,0.00 32.00,0.00C39.00,0.00 42.00,1.37 42.00,4.57C42.00,5.62 43.33,6.00 46.96,6.00C49.69,6.00 53.50,6.79 55.43,7.75C58.51,9.28 58.95,9.97 58.98,13.25C59.00,16.34 58.65,17.00 57.00,17.00C55.06,17.00 55.00,17.67 55.00,38.85C55.00,58.74 54.84,60.84 53.17,62.35C51.60,63.77 48.58,64.00 31.83,64.00C14.19,64.00 12.15,63.82 10.65,62.17zM52.00,39.00L52.00,17.00L32.00,17.00L12.00,17.00L12.00,39.00L12.00,61.00L32.00,61.00L52.00,61.00L52.00,39.00zM31.00,51.63L31.00,43.26L36.50,43.21C41.02,43.17 42.27,43.55 43.50,45.30C45.45,48.08 45.40,50.98 43.37,53.89C42.03,55.79 41.11,56.12 38.37,55.67C35.32,55.18 35.00,55.35 35.00,57.56C35.00,59.33 34.45,60.00 33.00,60.00C31.16,60.00 31.00,59.33 31.00,51.63zM21.20,54.80C20.54,54.14 20.00,51.89 20.00,49.80C20.00,47.71 19.55,46.00 19.00,46.00C18.45,46.00 18.00,45.33 18.00,44.50C18.00,43.67 18.45,43.00 19.00,43.00C19.55,43.00 20.00,42.10 20.00,41.00C20.00,39.67 20.67,39.00 22.00,39.00C23.33,39.00 24.00,39.67 24.00,41.00C24.00,42.33 24.67,43.00 26.00,43.00C27.11,43.00 28.00,43.67 28.00,44.50C28.00,45.33 27.11,46.00 26.00,46.00C24.38,46.00 24.00,46.67 24.00,49.50C24.00,52.33 24.38,53.00 26.00,53.00C27.11,53.00 28.00,53.67 28.00,54.50C28.00,56.34 22.96,56.56 21.20,54.80zM40.50,49.50C40.50,46.97 40.11,46.50 38.01,46.50C36.41,46.50 35.40,47.14 35.18,48.31C34.59,51.34 35.83,53.16 38.25,52.82C40.01,52.57 40.50,51.85 40.50,49.50zM20.00,28.00C20.00,19.67 20.15,19.00 22.00,19.00C23.55,19.00 24.00,19.67 24.00,21.97C24.00,24.75 24.20,24.91 27.00,24.35C31.47,23.46 33.00,25.31 33.00,31.62C33.00,36.28 32.74,37.00 31.05,37.00C29.44,37.00 29.06,36.18 28.80,32.25C28.55,28.27 28.18,27.50 26.50,27.50C24.82,27.50 24.45,28.27 24.20,32.25C23.94,36.18 23.56,37.00 21.95,37.00C20.16,37.00 20.00,36.25 20.00,28.00zM38.20,35.80C37.54,35.14 37.00,32.89 37.00,30.80C37.00,28.71 36.55,27.00 36.00,27.00C35.45,27.00 35.00,26.32 35.00,25.50C35.00,24.68 35.45,24.00 36.00,24.00C36.55,24.00 37.00,23.10 37.00,22.00C37.00,20.67 37.67,20.00 39.00,20.00C40.33,20.00 41.00,20.67 41.00,22.00C41.00,23.33 41.67,24.00 43.00,24.00C44.11,24.00 45.00,24.67 45.00,25.50C45.00,26.33 44.11,27.00 43.00,27.00C41.38,27.00 41.00,27.67 41.00,30.50C41.00,33.33 41.38,34.00 43.00,34.00C44.11,34.00 45.00,34.67 45.00,35.50C45.00,37.34 39.96,37.56 38.20,35.80zM56.00,13.51C56.00,13.24 55.22,12.12 54.28,11.01C52.66,9.12 51.36,9.00 32.00,9.00C12.64,9.00 11.34,9.12 9.72,11.01C8.78,12.12 8.00,13.24 8.00,13.51C8.00,13.78 18.80,14.00 32.00,14.00C45.20,14.00 56.00,13.78 56.00,13.51zM39.75,4.75C39.47,3.90 36.98,3.50 32.00,3.50C27.02,3.50 24.53,3.90 24.25,4.75C23.94,5.68 25.91,6.00 32.00,6.00C38.09,6.00 40.06,5.68 39.75,4.75z"/></svg>