<svg xmlns="http://www.w3.org/2000/svg" viewBox="0 0 192 192"><rect width="192" height="192" fill="#4838A8"/><path fill="#ffffff" fill-rule="evenodd" d="M35.23,154.56C34.91,154.05 35.46,153.15 36.46,152.56C40.18,150.38 43.95,146.81 45.93,143.61C47.59,140.93 62.96,102.18 85.16,44.71L88.17,36.93L97.22,37.21L106.26,37.50L127.13,91.34C138.60,120.95 148.95,146.52 150.11,148.16C151.28,149.80 153.31,151.55 154.62,152.04C155.93,152.54 157.00,153.52 157.00,154.23C157.00,155.23 150.74,155.50 127.50,155.50C104.81,155.50 98.00,155.22 98.00,154.27C98.00,153.59 99.12,152.80 100.50,152.52C101.88,152.23 104.14,151.76 105.53,151.47C106.93,151.18 108.57,149.85 109.18,148.51C110.11,146.46 109.53,143.89 105.47,132.29C102.82,124.70 99.85,116.59 98.86,114.25L97.07,110.00L80.56,110.00L64.05,110.00L62.65,112.75C59.64,118.67 55.72,131.80 55.25,137.56C54.44,147.43 56.57,150.06 67.25,152.43C68.76,152.76 70.00,153.59 70.00,154.27C70.00,155.78 36.17,156.06 35.23,154.56zM95.78,105.75C90.09,89.38 81.36,66.00 80.94,66.00C80.52,66.00 70.12,92.33 65.24,105.75C64.89,106.72 68.35,107.00 80.50,107.00C92.64,107.00 96.12,106.72 95.78,105.75z"/></svg>