<svg viewBox="-3.5 -3.66 31.147 31.147" fill="#A050F0" xmlns="http://www.w3.org/2000/svg">
<path d="M22.2331 1.0326H19.4624C18.5321 1.3666 18.1749 2.0291 18.5028 2.5274L18.9775 3.2484C19.3829 3.8648 19.4625 4.6402 19.19 5.3258L14.2194 17.8272C13.9905 18.4291 13.7591 18.8417 13.6533 18.9433C13.5969 18.9972 13.503 19.0136 13.4296 18.9593L13.1674 18.7504C13.0842 18.6878 13.0889 18.5969 13.1653 18.5118C13.3111 18.3183 13.4014 18.0848 13.4527 17.8724C13.5138 17.6173 13.4932 17.3494 13.3998 17.1042L9.1908 5.9775C8.9126 5.2431 8.9239 4.4308 9.2211 3.7041L9.6706 2.6054C9.9128 2.0143 9.4777 1.3661 8.8388 1.3661H2.0561C1.4762 1.032 1 2.1195 1.6189 2.7912L2.0505 3.2597C2.8433 4.1198 3.4699 5.1195 3.8994 6.2079L9.9431 22.0019C10.1011 22.4026 10.4881 22.6659 10.9186 22.6659H14.2651C14.361 23 14.7474 22.7378 14.9055 22.338L22.7339 2.5972C22.968 2.0071 22.5333 1.3671 21.8985 1.3671L21.899 1.3666Z"/>
</svg>
