<svg viewBox="0 0 24 24" fill="currentColor"><path fill-rule="evenodd" clip-rule="evenodd" d="M7.25 0a.75.75 0 0 1 .75.75V2h8V.75a.75.75 0 0 1 1.5 0V2h.25A3.25 3.25 0 0 1 21 5.25v15.5A3.25 3.25 0 0 1 17.75 24H6.25A3.25 3.25 0 0 1 3 20.75V5.25A3.25 3.25 0 0 1 6.25 2h.25V.75a.75.75 0 0 1 .75-.75Zm-.5 3.5h-.5c-.966 0-1.75.784-1.75 1.75V7h15V5.25c0-.966-.784-1.75-1.75-1.75h-.5V5a.75.75 0 0 1-1.5 0V3.5H8V5a.75.75 0 0 1-1.5 0V3.5ZM4.5 8.5v12.25c0 .966.784 1.75 1.75 1.75h11.5c.966 0 1.75-.784 1.75-1.75V8.5h-15ZM12.227 19.25c-.823 0-1.472-.2-1.946-.602-.47-.406-.741-.999-.813-1.778h1.504c.046.373.178.654.398.844.225.19.54.286.943.286.357 0 .633-.081.826-.243a.786.786 0 0 0 .29-.633.793.793 0 0 0-.286-.63.869.869 0 0 0-.809-.239h-.712v-1.16h.649c.353 0 .613-.078.78-.235a.716.716 0 0 0 .257-.57.693.693 0 0 0-.239-.55c-.16-.143-.393-.214-.697-.214-.347 0-.62.089-.82.265-.196.177-.318.429-.369.758h-1.488c.056-.736.325-1.309.806-1.72.486-.414 1.112-.622 1.878-.622.698 0 1.245.16 1.638.48.397.316.595.743.595 1.283 0 .366-.104.687-.313.963a1.625 1.625 0 0 1-.835.58c.418.11.746.308.984.595.243.282.365.641.365 1.077 0 .582-.193 1.058-.58 1.428-.387.365-.914.547-1.582.547ZM16.764 19.093h-1.496v-5.63l-1.118.778v-1.355l1.119-.778h1.495v6.985Z"/></svg>
