<svg viewBox="0 0 16 16" fill="currentColor" xmlns="http://www.w3.org/2000/svg">
  <circle cx="7.5" cy="4.75" r="4.75"/>
  <circle cx="12" cy="9" r="4" opacity="0.82"/>
  <circle cx="8" cy="12.75" r="3.25" opacity="0.68"/>
  <path d="M10 4.003H2.825A4.718 4.718 0 0 0 2.75 4.75A4.75 4.75 0 0 0 7.5 9.5C7.646 9.5 7.784 9.47 7.927 9.457C7.93 9.473 7.93 9.49 7.932 9.507A3.243 3.243 0 0 0 5.001 14H9A2 2 0 0 0 11 12V5.003A1 1 0 0 0 10 4.003Z" opacity="0.28"/>
  <path fill-rule="evenodd" d="M1 3H9A1 1 0 0 1 10 4V12A1 1 0 0 1 9 13H1A1 1 0 0 1 0 12V4A1 1 0 0 1 1 3ZM3.692 7.895A1.568 1.568 0 0 1 3.214 7.373A1.453 1.453 0 0 1 3.047 6.659A1.402 1.402 0 0 1 3.357 5.734A1.823 1.823 0 0 1 4.181 5.18A3.38 3.38 0 0 1 5.306 5A4.156 4.156 0 0 1 6.788 5.214V6.294A2.279 2.279 0 0 0 6.118 6.011A3.159 3.159 0 0 0 5.333 5.914A1.658 1.658 0 0 0 4.528 6.09A0.547 0.547 0 0 0 4.208 6.59C4.208 6.728 4.253 6.846 4.343 6.944A1.236 1.236 0 0 0 4.708 7.214C4.861 7.292 5.089 7.395 5.392 7.524A0.705 0.705 0 0 1 5.49 7.565A5.573 5.573 0 0 1 6.353 8.005A1.46 1.46 0 0 1 7.047 9.333A1.52 1.52 0 0 1 6.757 10.296A1.62 1.62 0 0 1 5.98 10.834A3.418 3.418 0 0 1 4.875 11A5.657 5.657 0 0 1 3.873 10.915A3.359 3.359 0 0 1 3.059 10.672V9.532A2.583 2.583 0 0 0 3.883 9.936A3.115 3.115 0 0 0 4.788 10.086A1.52 1.52 0 0 0 5.61 9.906A0.572 0.572 0 0 0 5.886 9.398A0.551 0.551 0 0 0 5.732 9.009A1.573 1.573 0 0 0 5.304 8.702A9.193 9.193 0 0 0 4.498 8.33A4.525 4.525 0 0 1 3.692 7.895Z"/>
</svg>
