<svg viewBox="0 0 24 24" fill="currentColor"><path d="M18.067 4.062a1.001 1.001 0 0 1 1.415-.042l1.457 1.373a1.001 1.001 0 0 1 .042 1.415l-4.217 4.478a6.19 6.19 0 0 1-8.794.25l-1.751-1.664a1 1 0 0 1-.031-1.414l1.404-1.478a1 1 0 0 1 1.414-.031l1.751 1.664a3.186 3.186 0 0 0 4.525-.128l4.785-4.423ZM5.933 19.938a1.001 1.001 0 0 1-1.415.042L3.061 18.607a1.001 1.001 0 0 1-.042-1.415l4.217-4.478a6.19 6.19 0 0 1 8.794-.25l1.751 1.664a1 1 0 0 1 .031 1.414l-1.404 1.478a1 1 0 0 1-1.414.031l-1.751-1.664a3.186 3.186 0 0 0-4.525.128l-4.785 4.423Z"/></svg>
