<svg xmlns="http://www.w3.org/2000/svg" viewBox="0 0 200 200" fill="currentColor" fill-rule="evenodd" clip-rule="evenodd">
  <path d="M87.706 169.556V150.83h24.651v18.882c22.795-5.414 39.75-25.905 39.75-50.356 0-19.903-14.211-47.904-30.684-56.563 2.218 7.763-1.109 17.893-5.545 17.005-1.672-.334-1.839-2.96-2.11-7.195-.566-8.879-1.585-24.835-17.853-41.603C94.614 42.71 75.937 66.561 63.777 82.091c-1.66 2.119-3.198 4.084-4.554 5.841-6.561 8.502-10.628 19.606-10.628 31.424 0 24.222 16.639 44.558 39.111 50.2Zm26.345-39.769c0 7.591-6.154 13.745-13.745 13.745s-13.745-6.154-13.745-13.745c0-3.139 1.08-6.088 2.822-8.346.36-.466.768-.988 1.209-1.55 3.229-4.124 8.19-10.458 8.535-13.568 10.236 6.872 14.924 18.179 14.924 23.464Z"/>
</svg>
