<svg xmlns="http://www.w3.org/2000/svg" xmlns:xlink="http://www.w3.org/1999/xlink" viewBox="-0.419 -0.419 500.837 500.837"><g id="SvgjsG1071" fill="none" fill-rule="evenodd" stroke="none" stroke-width="1"><g id="SvgjsG1070" fill-rule="nonzero"><rect id="SvgjsRect1069" width="500" height="500" x="0" y="0" fill="#161616" rx="10"/><g id="SvgjsG1068" fill="#FCFF74" transform="translate(81 81)"><path id="SvgjsPath1067" d="M0 3.9C0 1.76 1.77 0 3.9 0h29.72c2.13 0 3.9 1.77 3.9 3.9v330.2c0 2.13-1.77 3.9-3.9 3.9H3.9a3.93 3.93 0 0 1-3.9-3.9V3.9Z"/><path id="SvgjsPath1066" d="M75.03 3.9c0-2.13 1.77-3.9 3.9-3.9h29.73a3.93 3.93 0 0 1 3.89 3.9v330.2c0 2.13-1.77 3.9-3.9 3.9H78.94a3.93 3.93 0 0 1-3.9-3.9V3.9Z"/><path id="SvgjsPath1065" d="M150.06 3.9c0-2.13 1.77-3.9 3.9-3.9h29.73c2.12 0 3.9 1.77 3.9 3.9v330.2c0 2.13-1.78 3.9-3.9 3.9h-29.73a3.93 3.93 0 0 1-3.9-3.9V3.9Z"/><path id="SvgjsPath1064" d="M225.45 3.9c0-2.13 1.77-3.9 3.9-3.9h29.72c2.13 0 3.9 1.77 3.9 3.9v330.2c0 2.13-1.77 3.9-3.9 3.9h-29.73a3.93 3.93 0 0 1-3.89-3.9V3.9Z"/><path id="SvgjsPath1063" d="M300.48 135.55a3.93 3.93 0 0 1 3.9-3.89h29.73a3.93 3.93 0 0 1 3.89 3.9v67.24c0 2.12-1.77 3.9-3.9 3.9h-29.72a3.93 3.93 0 0 1-3.9-3.9v-67.25Z"/></g></g></g></svg>