<svg viewBox="0 0 43.2 43.2" fill="currentColor">
  <path d="M6.1 14.4c0-3.3-1.7-6-4.8-8.3h7.3c1.3 1 2.3 2.2 3 3.7.7 1.4 1.1 3 1.1 4.7 0 1.6-.4 3.2-1.1 4.7-.7 1.4-1.8 2.7-3 3.7 2.4 1 3.7 3.4 3.7 6.8v6.6H5.7v-6.6c0-3.3-1.6-5.6-4.4-6.8 3.1-2.3 4.8-5 4.8-8.3Zm14.2 0c0-3.3-1.7-6-4.8-8.3h7.3c1.3 1 2.3 2.2 3 3.7.7 1.4 1.1 3 1.1 4.7 0 1.6-.4 3.2-1.1 4.7-.7 1.4-1.8 2.7-3 3.7 2.4 1 3.7 3.4 3.7 6.8v6.6h-6.6v-6.6c0-3.3-1.6-5.6-4.4-6.8 3.1-2.3 4.8-5 4.8-8.3Zm14.3 0c0-3.3-1.7-6-4.8-8.3h7.3c1.3 1 2.3 2.2 3 3.7.7 1.4 1.1 3 1.1 4.7 0 1.6-.4 3.2-1.1 4.7-.7 1.4-1.8 2.7-3 3.7 2.4 1 3.7 3.4 3.7 6.8v6.6h-6.6v-6.6c0-3.3-1.6-5.6-4.4-6.8 3.1-2.3 4.8-5 4.8-8.3Z"/>
</svg>
