<svg xmlns="http://www.w3.org/2000/svg" width="236" height="236" viewBox="0 0 236 236" fill="none">
  <path d="M128.491 75.3548L159.708 0H129.77L118 38.2531L106.23 0H76.2928L107.509 75.3548H128.491Z" fill="#E19614"/>
  <path d="M107.509 160.645L76.2928 236H106.23L118 197.747L129.77 236H159.708L128.491 160.645H107.509Z" fill="#E19614"/>
  <path d="M75.3546 107.509L0 76.2926V106.23L38.253 118L0 129.77V159.708L75.3546 128.491V107.509Z" fill="#E19614"/>
  <path d="M236 76.2926L160.645 107.509V128.491L236 159.708V129.77L197.747 118L236 106.23V76.2926Z" fill="#E19614"/>
  <path d="M80.4719 140.73L5.07468 171.989L26.2268 193.142L61.6225 174.378L42.8585 209.773L64.0107 230.925L95.2698 155.528L80.4719 140.73Z" fill="#E19614"/>
  <path d="M155.529 95.27L230.926 64.0108L209.774 42.8585L174.378 61.6226L193.142 26.2268L171.99 5.07456L140.731 80.4719L155.529 95.27Z" fill="#E19614"/>
  <path d="M140.731 155.528L171.99 230.925L193.142 209.773L174.378 174.378L209.774 193.142L230.926 171.989L155.529 140.73L140.731 155.528Z" fill="#E19614"/>
  <path d="M95.2698 80.4719L64.0107 5.07456L42.8585 26.2268L61.6225 61.6226L26.2268 42.8585L5.07468 64.0108L80.4719 95.27L95.2698 80.4719Z" fill="#E19614"/>
</svg>
