<svg xmlns="http://www.w3.org/2000/svg" viewBox="0 0 53 53" role="img" aria-label="Trunk">
  <path d="M26.2239 53V47.2593C37.541 47.2593 46.7481 37.9859 46.7481 26.5873C46.7481 15.1885 37.541 5.9152 26.2239 5.9152C14.9067 5.9152 5.69969 15.1885 5.69969 26.5873H0C0 12.023 11.7643 0.17395 26.2239 0.17395C40.6839 0.17395 52.4483 12.023 52.4483 26.5873C52.4483 41.151 40.684 53 26.2239 53Z" fill="currentColor"/>
  <path d="M13.4892 27.003H7.78906C7.78906 16.6046 16.0582 8.14465 26.2218 8.14465V13.9763C19.2011 13.9763 13.4892 19.8199 13.4892 27.003Z" fill="currentColor"/>
  <path d="M36.8611 27.0033H31.1615C31.1615 24.2154 28.9447 21.9475 26.2196 21.9475C23.495 21.9475 21.2783 24.2154 21.2783 27.0033H15.5781C15.5781 21 20.3521 16.1163 26.2196 16.1163C32.0871 16.1163 36.8611 21 36.8611 27.0033Z" fill="currentColor"/>
</svg>
