<svg viewBox="0 0 16 16" fill="currentColor" xmlns="http://www.w3.org/2000/svg">
  <circle cx="14" cy="3" r="2"/>
  <circle cx="9" cy="3" r="3" opacity="0.9"/>
  <path d="M4.82 6H12.18A0.82 0.82 0 0 1 13 6.82V11.5A4.5 4.5 0 0 1 8.5 16A4.5 4.5 0 0 1 4 11.5V6.82A0.82 0.82 0 0 1 4.82 6Z" opacity="0.8"/>
  <path d="M15.122 6.003L12.18 6L10.476 6.822V10.887A2.733 2.733 0 1 0 15.942 10.887V6.822A0.82 0.82 0 0 0 15.122 6.003Z" opacity="0.8"/>
  <path fill-rule="evenodd" d="M1 3H9A1 1 0 0 1 10 4V12A1 1 0 0 1 9 13H1A1 1 0 0 1 0 12V4A1 1 0 0 1 1 3ZM8 5H3V6H5V11H6V6H8V5Z"/>
</svg>
