<svg xmlns="http://www.w3.org/2000/svg" viewBox="-33.454 -32.079 244.799 244.799" fill="currentColor"><path fill-rule="evenodd" d="M38.04,172.95C40.66,170.15 45.60,159.26 44.67,158.34C44.45,158.12 43.50,159.11 42.56,160.55C40.33,163.95 34.60,166.33 30.50,165.57C26.95,164.90 23.64,161.85 22.13,157.84C21.47,156.11 20.12,154.96 18.24,154.55C11.91,153.16 4.94,144.83 5.04,138.78C5.07,136.78 5.24,136.88 6.42,139.58C8.81,145.07 17.33,149.89 22.39,148.62C25.93,147.73 29.86,144.19 32.03,139.95C34.54,135.02 34.60,132.50 32.11,136.59C25.56,147.33 12.26,148.39 7.59,138.54C5.40,133.93 5.58,127.21 7.99,123.25C10.48,119.17 11.11,119.12 9.97,123.09C7.99,130.00 12.06,136.41 18.04,135.82C20.12,135.62 21.97,134.59 23.13,133.00C25.24,130.11 27.35,118.47 29.37,98.53L30.79,84.56L26.89,80.78C22.50,76.51 21.66,77.25 25.59,81.92C28.61,85.51 28.25,85.68 23.21,83.10C13.17,77.95 9.58,66.66 13.42,52.26C17.71,36.12 29.25,23.58 47.96,14.69C53.55,12.03 55.56,11.61 62.96,11.56C70.32,11.51 72.27,11.88 77.10,14.25C84.07,17.67 93.25,27.13 96.50,34.22C97.83,37.12 99.65,42.42 100.54,46.00C101.44,49.58 102.88,53.06 103.75,53.73C105.20,54.86 105.19,55.13 103.67,56.81C102.75,57.83 102.01,59.07 102.02,59.58C102.06,60.97 105.95,55.69 105.98,54.22C105.99,53.51 105.33,52.68 104.50,52.36C101.78,51.32 102.94,49.23 106.63,48.54C110.74,47.77 113.20,49.20 111.20,51.20C109.10,53.30 109.89,54.90 114.10,57.05C116.36,58.21 117.95,58.72 117.63,58.20C117.31,57.68 115.68,56.70 114.02,56.01C110.96,54.74 110.00,52.50 112.21,51.76C113.13,51.46 113.00,49.83 111.69,45.11C109.00,35.44 104.02,26.16 98.08,19.72C90.74,11.79 84.67,8.78 74.50,8.03L66.50,7.44L74.00,6.00C96.67,1.64 120.45,9.12 132.16,24.31C134.66,27.56 134.83,28.00 132.90,26.27L130.41,24.03L130.77,27.77C131.04,30.59 130.87,31.13 130.08,30.00C129.50,29.18 129.02,28.91 129.02,29.40C129.01,29.90 128.00,29.45 126.77,28.40C124.76,26.69 124.68,26.68 125.95,28.33C127.17,29.89 127.17,30.28 125.97,31.02C125.12,31.55 123.97,31.42 123.03,30.69C121.69,29.65 121.67,29.72 122.86,31.24C123.61,32.19 123.95,33.69 123.61,34.57C122.85,36.56 117.14,35.63 115.25,33.22C114.15,31.81 114.00,31.89 114.00,33.93C114.00,35.74 113.57,36.12 112.00,35.71C110.67,35.36 110.00,35.68 110.00,36.65C110.00,37.46 110.40,37.87 110.88,37.57C111.37,37.27 113.04,38.03 114.61,39.26C116.17,40.49 117.69,41.42 117.98,41.32C118.26,41.21 119.05,42.11 119.71,43.32C121.75,46.98 121.13,44.18 118.97,39.93L116.93,35.94L120.70,37.52C123.13,38.53 124.59,38.72 124.82,38.05C125.45,36.15 126.74,36.95 128.01,40.03C128.70,41.70 129.47,42.86 129.72,42.62C129.96,42.37 129.65,41.12 129.02,39.84C127.89,37.50 127.89,37.50 130.01,39.94L132.14,42.39L131.46,39.69C130.69,36.61 132.27,36.03 134.03,38.75C135.03,40.31 135.08,40.29 134.44,38.50C133.49,35.82 133.83,30.72 135.03,29.76C135.55,29.33 135.80,29.25 135.57,29.58C135.34,29.91 136.47,32.25 138.08,34.78C139.69,37.32 141.00,39.82 141.00,40.35C141.00,40.88 142.16,43.75 143.57,46.74C144.98,49.72 147.06,56.52 148.19,61.83C149.32,67.15 152.70,81.40 155.71,93.50C163.69,125.67 163.93,126.84 163.96,134.57C164.01,143.23 162.01,150.31 157.94,155.93C153.72,161.75 154.80,162.03 159.94,156.45C167.54,148.21 170.98,137.21 168.66,128.58C167.98,126.04 168.07,125.82 169.39,126.91C171.91,129.00 173.24,134.81 172.83,141.96C172.34,150.63 168.62,157.10 161.47,161.70C153.35,166.93 151.55,168.62 151.72,170.88C151.98,174.33 150.41,173.30 149.18,169.20C146.87,161.50 137.98,153.94 131.35,154.04C128.59,154.09 128.61,154.13 132.11,155.38C138.71,157.74 145.98,164.14 147.94,169.32C149.26,172.83 149.28,174.00 148.00,174.00C147.45,174.00 147.00,173.43 147.00,172.73C147.00,170.69 139.16,161.74 134.75,158.75C131.34,156.43 129.65,156.00 124.05,156.00C118.46,156.00 116.68,156.45 112.92,158.83C108.06,161.92 98.00,172.61 98.00,174.70C98.00,175.41 97.33,176.00 96.50,176.00C94.79,176.00 94.51,172.79 95.98,170.04C97.89,166.47 104.56,159.66 109.00,156.75C113.55,153.77 112.20,153.73 105.13,156.62C101.11,158.27 100.69,158.31 101.50,157.00C101.84,156.45 101.85,156.00 101.53,156.00C100.96,156.00 91.48,161.30 83.75,165.95C81.13,167.52 80.00,167.80 80.00,166.88C80.00,166.16 77.58,167.96 74.62,170.88C71.50,173.96 68.55,176.05 67.59,175.85C66.24,175.56 66.51,174.82 69.09,171.70C70.82,169.61 71.99,167.66 71.70,167.37C71.42,167.08 69.68,168.89 67.84,171.38C64.65,175.72 61.12,177.72 62.36,174.50C63.10,172.57 61.05,172.57 57.36,174.49C55.40,175.52 51.45,175.99 44.85,175.99L35.20,176.00L38.04,172.95zM88.00,171.50C90.43,169.03 92.53,167.00 92.67,167.00C92.81,167.00 91.93,169.00 90.71,171.45C89.01,174.87 87.93,175.91 86.04,175.95C83.73,176.00 83.85,175.73 88.00,171.50zM85.77,160.61C89.47,158.75 93.55,156.38 94.83,155.34L97.17,153.45L92.07,150.14C89.26,148.32 86.27,145.48 85.41,143.83C83.67,140.47 83.79,140.43 76.70,147.25C75.13,148.76 72.76,150.00 71.42,150.00C70.09,150.00 69.00,150.25 69.00,150.55C69.00,150.85 70.58,153.56 72.50,156.57C74.42,159.58 76.00,162.48 76.00,163.02C76.00,164.78 78.93,164.06 85.77,160.61zM79.00,158.65C79.00,157.90 77.92,156.13 76.61,154.71C74.70,152.65 74.51,152.02 75.67,151.57C76.47,151.27 78.45,151.70 80.06,152.53C81.68,153.37 83.00,153.64 83.00,153.15C83.00,151.72 80.40,149.94 79.52,150.76C79.08,151.17 78.94,150.82 79.20,150.00C79.81,148.02 83.00,147.43 83.00,149.29C83.00,150.08 83.95,151.94 85.11,153.42C87.88,156.94 86.85,157.77 82.36,155.64C79.10,154.08 78.81,154.07 79.38,155.54C79.72,156.43 80.00,157.35 80.00,157.58C80.00,157.81 80.79,158.01 81.75,158.02C83.25,158.03 83.28,158.17 82.00,159.00C79.92,160.34 79.00,160.24 79.00,158.65zM34.80,156.97C37.59,154.37 39.59,150.43 40.38,146.00L41.00,142.50L39.12,146.50C36.51,152.06 32.92,155.07 28.10,155.71C21.96,156.54 22.97,158.75 29.56,158.92C31.34,158.97 33.53,158.15 34.80,156.97zM153.32,137.50C156.23,131.98 156.13,122.47 153.08,114.68C150.44,107.92 149.67,107.66 151.15,114.03C152.52,119.93 151.46,132.34 148.99,139.54L147.00,145.31L149.11,143.40C150.27,142.36 152.16,139.70 153.32,137.50zM82.29,127.09C82.59,121.27 84.03,110.42 85.47,103.00C86.91,95.58 88.19,85.47 88.30,80.55L88.50,71.61L84.75,70.71C82.39,70.14 80.96,69.19 80.88,68.15C80.78,66.72 80.71,66.74 80.31,68.25C79.93,69.69 78.71,70.00 73.41,70.00C69.87,70.00 66.12,69.47 65.09,68.82C63.54,67.86 62.24,68.12 57.89,70.28C52.34,73.02 50.84,73.10 52.98,70.52C54.47,68.73 54.45,68.72 50.19,69.95C47.11,70.83 46.62,70.61 42.81,66.70L38.72,62.50L40.84,66.67L42.96,70.85L39.98,71.50C36.80,72.20 36.22,73.71 38.25,76.02C38.94,76.81 38.55,76.66 37.39,75.70C34.98,73.70 31.74,74.42 32.21,76.86C32.40,77.83 33.92,78.70 36.04,79.04C42.82,80.14 43.78,82.73 39.35,87.99C37.38,90.34 36.50,90.81 35.90,89.83C34.95,88.31 34.85,89.13 34.64,99.64C34.51,106.34 34.81,107.39 39.38,116.43C42.07,121.73 45.39,126.95 46.77,128.03C49.49,130.17 54.06,130.46 62.50,129.03C68.55,128.00 70.55,129.03 74.98,135.47C77.65,139.36 78.32,139.81 79.90,138.83C81.42,137.88 81.83,135.89 82.29,127.09zM101.78,136.44C104.13,134.79 104.88,129.66 102.94,128.46C101.77,127.74 94.00,132.50 94.00,133.94C94.00,135.26 96.93,138.00 98.35,138.00C99.01,138.00 100.56,137.30 101.78,136.44zM102.00,116.20C102.00,108.62 101.13,108.91 98.24,117.50C97.13,120.80 95.89,124.30 95.49,125.29C94.83,126.89 95.14,126.85 98.38,124.94C101.96,122.83 102.00,122.73 102.00,116.20zM41.20,113.80C40.54,113.14 40.00,111.76 40.00,110.73C40.00,109.71 39.53,107.99 38.95,106.91C38.38,105.84 38.20,104.48 38.57,103.89C38.96,103.26 39.70,103.77 40.39,105.16C41.21,106.80 42.45,107.52 44.53,107.56C46.16,107.59 48.45,108.13 49.62,108.77C50.78,109.41 52.02,109.65 52.37,109.30C52.72,108.95 53.00,109.17 53.00,109.79C53.00,110.53 51.39,110.74 48.25,110.41C45.63,110.13 42.83,110.38 42.00,110.97C40.70,111.90 40.75,112.23 42.44,113.52C43.51,114.33 43.94,115.00 43.39,115.00C42.85,115.00 41.86,114.46 41.20,113.80zM139.66,103.75C139.38,103.06 139.16,103.62 139.16,105.00C139.16,106.38 139.38,106.94 139.66,106.25C139.94,105.56 139.94,104.44 139.66,103.75zM138.56,98.44C137.62,93.44 126.03,55.84 124.87,54.01C123.68,52.14 123.71,52.27 131.13,76.29C134.32,86.63 137.22,96.64 137.57,98.54C137.93,100.44 138.45,102.00 138.72,102.00C139.00,102.00 138.92,100.40 138.56,98.44zM37.00,97.50C35.71,96.13 34.85,94.84 35.08,94.64C35.31,94.43 36.55,95.55 37.83,97.13C40.69,100.66 40.18,100.89 37.00,97.50zM38.20,86.80C37.54,86.14 37.00,84.56 37.00,83.30C37.00,82.03 36.55,81.00 36.00,81.00C34.89,81.00 34.61,86.28 35.67,87.33C36.03,87.70 37.02,88.00 37.87,88.00C39.06,88.00 39.13,87.73 38.20,86.80zM59.50,84.96C57.92,84.18 58.23,84.08 61.00,84.49C64.99,85.07 71.50,82.34 71.50,80.08C71.50,77.51 69.03,77.79 68.01,80.49C67.20,82.60 66.45,83.07 64.25,82.82C62.16,82.58 61.25,81.73 60.45,79.26C59.50,76.32 59.26,76.17 57.84,77.59C56.41,79.02 56.22,78.93 55.77,76.59C55.48,75.08 55.85,73.54 56.65,72.87C58.71,71.16 66.44,72.57 71.92,75.65L76.66,78.31L73.00,81.62C69.05,85.19 63.00,86.69 59.50,84.96zM117.33,78.72C116.20,76.89 112.03,76.09 109.04,77.14C104.45,78.74 105.36,79.50 111.93,79.53C115.18,79.55 117.62,79.19 117.33,78.72zM62.47,64.31C61.50,62.84 59.67,59.13 58.40,56.06C55.57,49.26 55.26,51.55 57.95,59.36C60.38,66.41 60.74,67.00 62.67,67.00C64.03,67.00 64.01,66.66 62.47,64.31zM123.12,49.33C121.94,47.30 121.66,47.95 122.62,50.46C122.97,51.36 123.46,51.88 123.72,51.62C123.97,51.36 123.71,50.33 123.12,49.33zM26.06,46.50C26.50,47.60 26.90,48.05 26.95,47.50C26.99,46.95 27.47,47.17 28.00,48.00C28.83,49.28 28.97,49.25 28.98,47.75C28.99,46.74 29.76,46.00 30.80,46.00C31.79,46.00 33.17,45.44 33.87,44.75C34.88,43.75 35.40,43.86 36.47,45.31C37.71,46.98 37.87,46.86 38.54,43.81C39.23,40.69 39.32,40.63 40.11,42.77C40.96,45.08 41.64,45.13 48.21,43.35C49.15,43.10 50.91,43.42 52.11,44.06C54.12,45.13 54.24,45.04 53.66,42.86C53.31,41.56 53.00,38.92 52.97,37.00L52.92,33.50L51.48,36.81C50.25,39.65 49.64,40.06 47.27,39.66C44.08,39.12 41.00,37.99 41.00,37.34C41.00,37.10 41.69,35.57 42.53,33.95C44.97,29.23 43.33,30.54 39.42,36.43C35.00,43.07 31.34,45.30 34.06,39.68C34.94,37.84 34.90,37.74 33.81,39.00C33.09,39.83 31.73,40.56 30.78,40.63C28.81,40.79 27.43,37.52 28.67,35.65C29.13,34.97 28.72,35.25 27.77,36.29C24.96,39.35 23.59,37.79 26.18,34.49L28.50,31.52L24.33,34.87C20.02,38.32 18.55,40.99 17.64,47.00C17.18,50.07 17.25,50.22 18.21,48.25C18.81,47.01 20.19,46.00 21.26,46.00C22.87,46.00 23.11,46.49 22.65,48.75C22.18,51.05 22.34,50.93 23.67,48.00C25.10,44.85 25.34,44.70 26.06,46.50zM77.93,43.82C77.98,44.83 78.36,44.78 79.54,43.61C80.92,42.23 80.82,41.59 78.56,37.29C74.58,29.70 70.85,25.85 73.02,31.57C74.24,34.76 74.27,36.29 73.10,35.56C72.61,35.26 71.93,35.73 71.60,36.61C71.26,37.49 70.40,37.98 69.68,37.71C68.96,37.43 67.35,37.98 66.09,38.93C63.95,40.55 63.91,40.77 65.47,42.33C66.39,43.25 67.90,44.05 68.82,44.12C69.74,44.18 71.17,44.29 72.00,44.37C72.83,44.44 73.81,44.06 74.20,43.53C74.59,42.98 75.21,43.39 75.62,44.45C76.33,46.31 76.37,46.31 77.10,44.43C77.52,43.37 77.89,43.09 77.93,43.82zM63.41,40.28C62.87,37.60 62.30,37.17 58.67,36.68C56.40,36.38 54.33,36.33 54.08,36.58C53.83,36.83 54.06,38.27 54.58,39.77C55.35,41.97 56.31,42.60 59.52,43.03C61.71,43.33 63.62,43.51 63.76,43.44C63.90,43.37 63.74,41.95 63.41,40.28zM87.27,36.70C88.60,36.21 88.89,35.40 88.42,33.52C87.48,29.79 89.70,30.37 92.13,34.50C93.27,36.42 94.83,38.00 95.60,38.00C97.61,38.00 97.33,35.90 95.25,35.33C94.29,35.07 92.26,32.83 90.75,30.36C88.22,26.24 87.86,26.00 86.39,27.47C85.15,28.70 84.47,28.81 83.39,27.91C82.30,27.00 82.00,27.10 82.00,28.38C82.00,29.27 81.66,30.00 81.24,30.00C79.88,30.00 78.02,33.88 78.62,35.46C78.95,36.31 80.04,37.00 81.05,37.00C82.06,37.00 83.19,37.50 83.57,38.11C83.97,38.76 84.51,38.83 84.88,38.28C85.22,37.77 86.30,37.06 87.27,36.70z"/></svg>