<svg viewBox="0 0 24 24" fill="currentColor"><path d="M20.803 18.891c-.168.239-4.163 3.109-8.791 3.109S3.378 19.13 3.197 18.891a.54.54 0 0 1-.1-.317.54.54 0 0 1 .539-.539c.166 0 .317.079.417.2.16.155 3.654 2.736 7.959 2.736s7.799-2.581 7.959-2.737a.54.54 0 0 1 .417-.2.54.54 0 0 1 .539.54.54.54 0 0 1-.124.317zM7.191 13.27a.9.9 0 0 1-.9-.899V7.899a.9.9 0 0 1 1.8 0v4.472a.9.9 0 0 1-.9.899zm3.2.72a.9.9 0 0 1-.9-.9V6.54a.9.9 0 0 1 1.8 0v6.55a.9.9 0 0 1-.9.9zm3.2-.72a.9.9 0 0 1-.9-.9V6.54a.9.9 0 0 1 1.8 0v5.83a.9.9 0 0 1-.9.9zm3.2-.72a.9.9 0 0 1-.9-.9V7.9a.9.9 0 0 1 1.8 0v3.75a.9.9 0 0 1-.9.9zM12 0C5.373 0 0 5.373 0 12s5.373 12 12 12 12-5.373 12-12S18.627 0 12 0z"/></svg>
